<?xml version="1.0" encoding="utf-8"?>
<!-- Generator: Adobe Illustrator 23.0.1, SVG Export Plug-In . SVG Version: 6.00 Build 0)  -->
<svg version="1.1" id="Layer_1" xmlns="http://www.w3.org/2000/svg" xmlns:xlink="http://www.w3.org/1999/xlink" x="0px" y="0px"
	 viewBox="0 0 512 331.7" style="enable-background:new 0 0 512 331.7;" xml:space="preserve">
<style type="text/css">
	.st0{fill:#1B4279;}
	.st1{fill:#FFFFFF;}
	.st2{fill:#F16823;}
	.st3{fill-rule:evenodd;clip-rule:evenodd;fill:#51B848;}
	.st4{fill:#1C4178;}
</style>
<g>
	<g>
		<path class="st1" d="M65.2,260.4v56.1h-5.4v-46.5L38,299.7l-21.8-29.8v46.5h-5.4v-56.1h4.7L38,291.4l22.5-31.1H65.2z"/>
		<path class="st1" d="M78.2,288.3c0-16.2,11.9-29.1,29.2-29.1s29.2,12.9,29.2,29.1c0,16.1-11.9,29.1-29.2,29.1
			S78.2,304.4,78.2,288.3z M130.9,288.3c0-13.3-9.4-24.2-23.5-24.2c-14.1,0-23.5,10.9-23.5,24.2c0,13.2,9.3,24.2,23.5,24.2
			C121.5,312.5,130.9,301.5,130.9,288.3z"/>
		<path class="st1" d="M193.8,260.4v56.1h-5.2L155,269.4v47.1h-5.3v-56.1h5.2l33.6,47v-47H193.8z"/>
		<path class="st1" d="M214.9,265.1v21h21.7v4.5h-21.7v21H241v4.8h-31.5v-56.1H241v4.8H214.9z"/>
		<path class="st1" d="M271.2,289.8v26.6h-5.4v-26.6l-19.6-29.4h6.4l15.9,24.2l15.9-24.2h6.4L271.2,289.8z"/>
		<path class="st2" d="M319.4,260.4c5.1,0,9.6,1.6,13.2,4.8c3.7,3.2,5.5,7.4,5.5,12.7c0,5.2-1.8,9.4-5.5,12.6
			c-3.7,3.2-8.1,4.8-13.2,4.8l-10.7,0.1v21.1h-11v-56.1H319.4z M315.9,286.9c3.4,0.1,6.1-0.7,8-2.3c1.9-1.6,2.8-3.8,2.8-6.7
			c0-3-0.9-5.3-2.8-6.8c-1.9-1.6-4.6-2.4-8.1-2.4l-7.2,0.1v18.1H315.9z"/>
		<path class="st2" d="M379.6,316.5l-16.2-22.7h-3.7v22.7h-11v-56.1h20.1c5.4,0,10,1.5,13.8,4.5c3.8,3,5.7,7.1,5.7,12.3
			c0,4.1-1.2,7.4-3.7,10.1c-2.5,2.6-5.7,4.5-9.8,5.5l18.2,23.7H379.6z M359.7,268.8v16.7h6.7c3.4,0,6-0.7,7.8-2.1
			c1.8-1.4,2.7-3.4,2.7-6.1c0-2.7-0.9-4.7-2.8-6.2c-1.9-1.5-4.6-2.2-8.1-2.2H359.7z"/>
		<path class="st2" d="M442.2,313.7c-4.6,2.7-9.9,4-15.9,4c-5.9,0-11.2-1.3-15.9-4c-4.6-2.7-8.2-6.2-10.6-10.6
			c-2.5-4.4-3.7-9.4-3.7-14.8c0-5.4,1.2-10.4,3.7-14.8c2.5-4.4,6-8,10.6-10.6c4.6-2.6,9.9-3.9,15.9-3.9c4.4,0,8.6,0.8,12.4,2.3
			c3.8,1.5,7,3.6,9.6,6.2c2.6,2.6,4.6,5.7,6,9.3c1.5,3.6,2.2,7.4,2.2,11.4c0,5.4-1.2,10.4-3.7,14.8
			C450.4,307.5,446.8,311,442.2,313.7z M412.7,302.1c3.4,3.8,8,5.7,13.6,5.7c5.6,0,10.2-1.9,13.6-5.7c3.4-3.8,5.2-8.5,5.2-13.9
			c0-5.4-1.7-10-5.2-13.8c-3.4-3.8-8-5.7-13.6-5.7c-5.6,0-10.2,1.9-13.6,5.7c-3.4,3.8-5.2,8.4-5.2,13.8
			C407.5,293.7,409.2,298.3,412.7,302.1z"/>
		<path class="st2" d="M484.4,317.7c-9,0-16.3-2.9-21.8-8.6l7.2-7.4c3.7,4.5,8.3,6.7,13.8,6.7c2.6,0,4.8-0.6,6.6-1.9
			c1.8-1.3,2.8-3,2.8-5.3s-0.9-4.1-2.6-5.4s-4.3-2.5-7.5-3.6c-5.6-1.8-9.7-3.9-12.4-6.5c-2.7-2.6-4-6.1-4-10.7
			c0-4.6,1.9-8.4,5.7-11.5c3.8-3,8.3-4.6,13.5-4.6c6.9,0,13,2.2,18.2,6.7L497,273c-3.6-3.2-7.3-4.8-11.1-4.8c-2.3,0-4.3,0.6-5.9,1.9
			c-1.6,1.3-2.4,2.8-2.4,4.8c0,2,0.8,3.7,2.4,5c1.6,1.3,4.4,2.6,8.6,4c10.6,3.5,15.9,9.3,15.9,17.3c0,2.8-0.6,5.3-1.8,7.5
			c-1.2,2.2-2.8,4-4.8,5.2c-2,1.3-4.1,2.2-6.4,2.9C489.2,317.3,486.8,317.7,484.4,317.7z"/>
	</g>
	<g>
		<g>
			<path class="st2" d="M187,72.4c0,0,1.2-1.4,3.2-3.8c1-1.2,2.3-2.7,3.7-4.3c1.4-1.7,3-3.5,4.8-5.6c1.8-2,3.7-4.3,5.7-6.6
				c2-2.3,4.2-4.8,6.4-7.3c2.2-2.5,4.5-5.2,6.9-7.8c2.4-2.6,4.8-5.3,7.1-8c2.4-2.7,4.7-5.4,7-8.1c0.6-0.7,1.1-1.3,1.7-2l0.2-0.3
				l0.1-0.1l0.2-0.2l0,0l0.1-0.1l0.1-0.1c0,0,0,0,0.1-0.1l0.1-0.1c0.1-0.1,0.2-0.2,0.4-0.3c0.3-0.2,0.5-0.3,0.7-0.5
				c0.8-0.5,1.8-0.9,2.7-1c1.9-0.3,4,0.1,5.6,1.2c0.2,0.1,0.4,0.3,0.6,0.4l0.4,0.3l0.5,0.4c0.3,0.3,0.6,0.6,1,0.8
				c2.5,2.3,27.8,28.6,29.7,31.2c2.1,2.5-1,6.4-4.1,3.9c-2.7-1.7-23-21.3-24.2-22.2c-2.4-1.9-4.9-4-7.4-6.3
				c-0.3-0.3-0.6-0.6-0.9-0.9l-0.5-0.4l-0.1-0.1c0,0,0,0,0,0c0,0,0.1,0,0.1,0.1c0.2,0.1,0.5,0.1,0.7,0.1c0.1,0,0.2-0.1,0.3-0.2
				c0,0,0,0,0.1-0.1c0,0,0.1-0.1,0.1-0.1l0,0c0,0,0,0,0,0l-0.1,0.1l-0.1,0.1l0,0c0.1-0.1-0.2,0.2,0.1-0.1l-0.1,0.1l-0.2,0.2
				c-0.6,0.6-1.3,1.2-1.9,1.8c-2.6,2.4-5.3,4.8-7.9,7.3c-2.6,2.5-5.2,5-7.8,7.4c-2.5,2.5-5.1,4.8-7.5,7.1c-2.5,2.3-4.8,4.6-7.1,6.7
				c-2.3,2.1-4.4,4.1-6.4,5.9c-2,1.8-3.8,3.5-5.4,5c-1.6,1.5-3,2.8-4.2,3.8c-2.3,2.1-3.7,3.3-3.7,3.3c-0.2,0.2-0.4,0.1-0.6,0
				C186.8,72.9,186.8,72.6,187,72.4z"/>
		</g>
	</g>
	<g>
		<g>
			<path class="st2" d="M205.7,68.5c0,0.9,0,1.7,0,2.6c0,1.7,0.1,3.5,0.1,5.2c0.1,1.7,0.1,3.4,0.2,5.2l0.1,2.2l0,0.3
				c0,0,5.5-1.7,8.9-1.9l0-0.7c0.1-1.7,0.1-3.4,0.2-5.2c0-1.7,0.1-3.4,0.1-5.2c0-0.9,0-1.7,0-2.6l0-0.7c6.6,0,13.3-0.1,19.8-0.4
				c6.8-0.3,13.6-0.6,20.1-1c6.5-0.5,12.8-0.9,18.8-1.3c3-0.2,5.9-0.4,8.7-0.6c2.8-0.2,5.5-0.4,8.1-0.5l3.8-0.2
				c0.6,0,1.2-0.1,1.8-0.1h0.2c0.1,0,0.2,0,0.2,0c0.1,0,0.2,0,0.3,0c0.2,0,0.5,0.1,0.7,0.2c0.9,0.4,1.6,1.3,1.8,2.2
				c0.1,0.2,0.1,0.5,0.1,0.7c0,0.3,0,0.6,0,0.8c0,0.5,0,1.1,0.1,1.6c0.2,4.1,0.2,7.6,0.3,10.6c0.1,0,0.1,0,0.2,0
				c0.1-3,0.1-6.5,0.3-10.6c0-0.5,0-1.1,0.1-1.6c0-0.3,0-0.5,0-0.8l0-0.5c0-0.2,0-0.3-0.1-0.5c-0.2-1.2-1-2.5-2.2-3.2
				c-0.3-0.2-0.6-0.3-1-0.4c-0.2-0.1-0.4-0.1-0.5-0.1c-0.1,0-0.2,0-0.3,0l-0.2,0c-0.6,0-1.3-0.1-1.9-0.1l-3.8-0.2
				c-2.6-0.1-5.3-0.3-8.1-0.5c-2.8-0.2-5.7-0.4-8.7-0.6c-6-0.4-12.3-0.9-18.8-1.3c-6.5-0.4-13.3-0.8-20.1-1
				c-6.8-0.3-13.8-0.4-20.7-0.4c-2,0-4,0.7-5.5,1.9c-1.5,1.2-2.6,3-3,4.9c-0.1,0.2-0.1,0.5-0.2,0.8l0,0.5l0,0.2l0,0.2l0,0.4l0,0.3
				L205.7,68.5z"/>
			<path class="st2" d="M215.4,66.7c0,0,0,0.1,0,0.1c0,0,0,0.1,0,0.1l0-0.1L215.4,66.7z"/>
		</g>
	</g>
	<g>
		<g>
			<path class="st1" d="M331.6,181.7V162c0-9.6-9.3-10.3-9.3-10.3h-54.1c0,0-16.5,0.8-16.5-14.5c0-15.2,14.9-16,14.9-16h52.5
				c10,0,12.4-9.8,12.4-9.8V90.7c0-11.1-10.3-11.9-10.3-11.9H202.9c-17.3,0-16-16.5-16-16.5c0-18.4,18.5-19.1,18.5-19.1l7.2-7.8
				c-33.5,0-32.4,23.2-32.4,23.2v108.5c0,18.1,23.2,24.8,23.2,24.8h118.4C332.1,192,331.6,181.7,331.6,181.7z M317.2,43.7
				c0,0,6.2,3.9-0.5,6.7h-11.8l-0.2,6.6l13.6,0.2c0,0,8.8-1,8.8-9.8c0-8.8-7.7-9.8-7.7-9.8h-50.5l7.2,6.2H317.2z"/>
		</g>
	</g>
	<path class="st3" d="M270.4,128.9c3.8,0,7,3.1,7,7c0,3.8-3.1,7-7,7c-3.8,0-6.9-3.1-6.9-7C263.4,132.1,266.5,128.9,270.4,128.9z"/>
</g>
</svg>
