<?xml version="1.0" encoding="utf-8"?>
<!-- Generator: Adobe Illustrator 21.0.0, SVG Export Plug-In . SVG Version: 6.00 Build 0)  -->
<svg version="1.1" id="Layer_1" xmlns="http://www.w3.org/2000/svg" xmlns:xlink="http://www.w3.org/1999/xlink" x="0px" y="0px"
	 viewBox="0 0 512 512" style="enable-background:new 0 0 512 512;" xml:space="preserve">
<g>
	<path style="fill:#CCCCCC;" d="M106.8,482.3c-57.4-42.7-94-108.3-100.2-179.6l43.2,0.2c0.3,2.9,0.7,6.4,1.3,9.9c0.3,2.2,0.7,4.3,1.1,6.4
		c1.5,8.2,3.5,16.3,6,24.1c12.5,40.6,37.1,76,70.4,102L106.8,482.3z"/>
	<path style="fill:#CCCCCC;" d="M460.7,242.9c-9.2-48.4-35.3-92-73.3-122.9l22.3-37.4c51.2,39.3,85,96.8,94.7,160.7L460.7,242.9z"/>
	<path style="fill:#CCCCCC;" d="M388.3,442.2c19-15.5,34.8-34.1,47.4-55.5c7.3-12.4,13.2-25.5,17.7-38.8c1.5-4.4,2.8-8.7,3.9-12.9
		c0.6-2.3,1.2-4.6,1.7-6.9c1.1-4.5,1.9-8.7,2.6-12.9c0.5-2.9,0.9-5.8,1.2-8.7c0-0.1,0-0.2,0.1-0.3l43.1,0.4
		c-3.6,35.7-14.9,70.4-33.3,101.5c-16.3,27.7-37.8,52.1-63.1,71.7L388.3,442.2z"/>
	<path style="fill:#CCCCCC;" d="M331.7,89.8h-0.2c-0.3-0.1-0.6-0.2-1-0.4c-2.1-0.8-4.2-1.6-6.2-2.3c-2-0.7-4.1-1.4-6.1-2.1
		c-2.2-0.7-4.3-1.4-6.5-2c-5.4-1.5-11.1-2.9-16.7-4c-13.3-2.7-27.1-4-40.8-4c-16.6,0-33.3,2-49.5,5.9c-5.8,1.4-11.4,3-16.5,4.7
		l-2.3,0.7l-22.3-39.6c28.9-10.8,59.7-16.5,90.5-16.5c34.7,0,69.1,7.2,100.9,20.9l-23.1,38.7L331.7,89.8z"/>
	<path style="fill:#CCCCCC;" d="M9.1,239.5c5-30,15.4-58.6,31.2-85.4c18.3-31.2,43.1-57.9,72.4-78.4l21.2,37.7c-2.5,1.8-4.9,3.7-7.2,5.6
		c-2.6,2-5.1,4.1-7.4,6.2c-4.7,4-9.3,8.4-13.6,13.1c-2,2.1-4.1,4.4-6.2,6.8c0,0-5,6.1-5.2,6.3h-0.7l-12.8,18.6v0.3
		c-1.1,1.8-2.2,3.7-3.4,5.6c-4.9,8.4-9.4,17.4-13.3,26.7l-2.1,5v0.3c-0.8,2.1-1.5,4.1-2.2,6.1c-1.2,3.6-2.3,7.2-3.4,10.9
		c-1.4,4.9-2.6,9.8-3.6,14.8L9.1,239.5z"/>
	<path style="fill:#CCCCCC;" d="M305.8,315.7c0,28.5-23.1,51.6-51.6,51.6c-28.5,0-51.6-23.1-51.6-51.6c0-28.5,23.1-51.6,51.6-51.6
		C282.7,264.1,305.8,287.2,305.8,315.7z"/>
	<path style="fill:#CCCCCC;" d="M317.1,130.7l-67.2,119.2c-35.5,2-63.1,32-61.9,67.7c1.2,36.2,31.6,64.6,67.8,63.4
		c36.3-1.2,64.7-31.6,63.4-67.8c-0.6-18.9-9.3-35.7-22.5-47.2l27.2-132.8C324.7,129.1,319.1,127.1,317.1,130.7z M310.3,315.7
		c0,30.9-25.1,56-56.1,56c-30.9,0-56-25.1-56-56c0-31,25.1-56,56-56C285.2,259.7,310.3,284.7,310.3,315.7z"/>
	<path style="fill:#FFFFFF;" d="M305.8,315.7c0,28.5-23.1,51.6-51.6,51.6c-28.5,0-51.6-23.1-51.6-51.6c0-28.5,23.1-51.6,51.6-51.6
		C282.7,264.1,305.8,287.2,305.8,315.7z"/>
	<path style="fill:#CCCCCC;" d="M305.8,315.7c0,28.5-23.1,51.6-51.6,51.6c-28.5,0-51.6-23.1-51.6-51.6c0-28.5,23.1-51.6,51.6-51.6
		C282.7,264.1,305.8,287.2,305.8,315.7z"/>
</g>
</svg>
