<svg xmlns="http://www.w3.org/2000/svg" xmlns:xlink="http://www.w3.org/1999/xlink" width="60" height="63" viewBox="0 0 60 63">
    <defs>
        <path id="dyb3abbn9d" d="M20.915 0c6.47 0 11.713 5.244 11.713 11.713v1.29c1.187.199 2.092 1.23 2.092 2.474v2.929c0 1.266-.938 2.313-2.157 2.485-.431 4.142-3.022 7.642-6.628 9.355v3.846h.837c8.317 0 15.059 6.742 15.059 15.06v1.882H0V49.15c0-8.317 6.742-15.059 15.06-15.059h.835v-3.846c-3.605-1.713-6.196-5.213-6.628-9.355-1.218-.172-2.156-1.22-2.156-2.485v-2.929c0-1.243.905-2.275 2.092-2.475v-1.29C9.203 5.245 14.447 0 20.915 0z"/>
        <path id="n2reuryidf" d="M14.013.282c0 2.481 3.137 4.493 7.007 4.493 3.87 0 7.007-2.012 7.007-4.493 0-.074-.003-.147-.008-.22C35.752.695 41.83 7.172 41.83 15.07v1.872H0V15.07C0 7.1 6.19.577 14.025.046c-.008.079-.012.157-.012.236z"/>
        <path id="zp6teeuo4h" d="M7.345 3.164c.221 1.985 1.905 3.529 3.95 3.529 2.05 0 3.738-1.553 3.95-3.547.018-.16-.161-.427-.386-.427H7.757c-.226 0-.434.246-.412.445z"/>
        <path id="9bzx2fsrjj" d="M0 0H55.217V58.563H0z"/>
        <path id="pvd8bgsk6l" d="M10.374 1.052c.875-.361 1.308.655 2.141.525.604-.094.768-.17 1.313.173.53.334.655.095 1.255.09.423-.003.682.351 1.037.388.176.019.345-.165.535-.154.677.041.72.917 1.258 1.158.491.22 1.07-.09 1.557-.147 1.19-.14.375.972.409 1.636.467.109.941-.327 1.406-.247.733.127.456.886.286 1.397.508-.009 1.833-.572 2.161.148.17.372-.225.868-.219 1.245.01.532.4.972.538 1.475.187.679.452 2.499-.015 3.102-.156.201-1.222-.364-1.666-.61C18.637 9.17 17.913 8.515 12.032 8.6c-5.88.086-9.909 2.841-10.136 3.123-.157.196-.359.72-.524 2.178-.166 1.458.046 4.074-.554 4.07-.51-.002-.62-4.974-.4-6.947.033-.303.164-.844.07-1.117-.083-.238-.486-.237-.422-.634.073-.451.528-.227.726-.443.376-.409-.203-.505-.3-.863-.142-.531.27-.669.642-.836.411-.186.358-.023.692-.387-.446-.326-.607-.772.003-1.01.26-.102.934.032 1.137-.12.053-.04.074-.268.107-.314.324-.464.244-.8.211-1.321-.027-.426-.023-.818.487-.86.34-.029.618.25.923.331.338.091.211.158.476-.025.466-.32.149-.945.518-1.318.507-.512.839.238 1.246.295.883.123.6-.774 1.122-1.103.625-.392.686.471 1.076.502.338.026.947-.626 1.242-.748zM22.44 11.92c.177-.217.348-.091.564-.004.19.077.62.378.793.498l.072.049c.367.206.658 2.28.672 3.072.009.489.017 2.354-.5 2.193-.158-.05-.398-1.037-.432-1.615-.035-.577-.363-2.544-.867-3.448-.115-.207-.444-.57-.302-.745z"/>
        <path id="2fp4zctzto" d="M21.334.627c1.866 0 3.495 1.019 4.36 2.53.042-.013.089-.02.137-.02h1.673c.289 0 .523.234.523.523 0 .289-.234.523-.523.523h-1.367c.14.463.217.955.217 1.464 0 2.772-2.248 5.02-5.02 5.02-2.773 0-5.02-2.248-5.02-5.02 0-.295.026-.585.075-.866-.015-.918-.719-1.644-1.568-1.644-.783 0-1.443.617-1.552 1.433.077.348.117.708.117 1.077 0 2.772-2.247 5.02-5.02 5.02-2.772 0-5.02-2.248-5.02-5.02 0-.51.076-1 .217-1.464H2.196c-.289 0-.523-.234-.523-.523 0-.289.234-.523.523-.523H3.87c.048 0 .095.007.14.019C4.87 1.646 6.498.627 8.365.627c1.957 0 3.652 1.12 4.48 2.754.433-.653 1.156-1.08 1.975-1.08.84 0 1.58.449 2.01 1.13.816-1.66 2.526-2.804 4.503-2.804zm-12.968.837c-2.31 0-4.183 1.873-4.183 4.183 0 2.31 1.873 4.183 4.183 4.183 2.31 0 4.183-1.873 4.183-4.183 0-2.31-1.873-4.183-4.183-4.183zm12.968 0c-2.31 0-4.183 1.873-4.183 4.183 0 2.31 1.873 4.183 4.183 4.183 2.31 0 4.183-1.873 4.183-4.183 0-2.31-1.873-4.183-4.183-4.183z"/>
        <filter id="lplhjvoqqb" width="210%" height="203%" x="-55.4%" y="-51.7%" filterUnits="objectBoundingBox">
            <feOffset dy="2" in="SourceAlpha" result="shadowOffsetOuter1"/>
            <feGaussianBlur in="shadowOffsetOuter1" result="shadowBlurOuter1" stdDeviation="7"/>
            <feColorMatrix in="shadowBlurOuter1" result="shadowMatrixOuter1" values="0 0 0 0 0 0 0 0 0 0 0 0 0 0 0 0 0 0 0.5 0"/>
            <feMerge>
                <feMergeNode in="shadowMatrixOuter1"/>
                <feMergeNode in="SourceGraphic"/>
            </feMerge>
        </filter>
        <filter id="tmxgi5tepn" width="100" height="100" x="0%" y="0%" filterUnits="objectBoundingBox">
            <feOffset in="SourceAlpha" result="shadowOffsetOuter1"/>
            <feColorMatrix in="shadowOffsetOuter1" values="0 0 0 0 0 0 0 0 0 0 0 0 0 0 0 0 0 0 0.1 0"/>
        </filter>
        <circle id="65l0lt1dqa" cx="31.5" cy="31.5" r="31.5"/>
    </defs>
    <g fill="none" fill-rule="evenodd">
        <g>
            <g transform="translate(-151 -42) translate(149 42)">
                <mask id="s0r37qofgc" fill="#fff">
                    <use xlink:href="#65l0lt1dqa"/>
                </mask>
                <g filter="url(#lplhjvoqqb)" mask="url(#s0r37qofgc)">
                    <g>
                        <g transform="translate(4.437 4.437) translate(6.693 7.53)">
                            <mask id="b172ry79fe" fill="#fff">
                                <use xlink:href="#dyb3abbn9d"/>
                            </mask>
                            <use fill="#D0C6AC" xlink:href="#dyb3abbn9d"/>
                            <g fill="#D08B5B" mask="url(#b172ry79fe)">
                                <path d="M0 0H55.217V51.034H0z" transform="translate(-6.693)"/>
                            </g>
                            <path fill="#000" fill-opacity=".1" d="M9.203 19.66c0 6.47 5.244 11.713 11.712 11.713 6.47 0 11.713-5.244 11.713-11.712v1.673c0 6.469-5.244 11.712-11.713 11.712-6.468 0-11.712-5.243-11.712-11.712z" mask="url(#b172ry79fe)"/>
                        </g>
                        <g>
                            <g transform="translate(4.437 4.437) translate(0 35.556) translate(6.693 6.065)">
                                <mask id="cqchx0rieg" fill="#fff">
                                    <use xlink:href="#n2reuryidf"/>
                                </mask>
                                <use fill="#E6E6E6" xlink:href="#n2reuryidf"/>
                                <g fill="#262E33" mask="url(#cqchx0rieg)">
                                    <path d="M0 0H55.217V23.007H0z" transform="translate(-6.693 -6.065)"/>
                                </g>
                                <g fill="#000" fill-opacity=".16" mask="url(#cqchx0rieg)" opacity=".6">
                                    <ellipse cx="8.471" cy="5.824" rx="8.29" ry="5.629" transform="translate(12.55 -5.229)"/>
                                </g>
                            </g>
                            <g>
                                <path fill="#34353E" d="M13.386 8.47c0 3.182.41 6.155 1.122 8.681H0v-1.872C0 7.187 6.382.586 14.388.235c-.638 2.428-1.002 5.24-1.002 8.236zm28.445 6.81v1.87l-14.298.001c.711-2.526 1.121-5.499 1.121-8.68 0-2.993-.363-5.8-.998-8.226C35.561.703 41.831 7.26 41.831 15.28z" transform="translate(4.437 4.437) translate(0 35.556) translate(6.693 5.856)"/>
                                <path fill="#E6E6E6" d="M31.164 12.131l1.999-1.499c.302-.226.718-.223 1.015.009l1.378 1.072-4.392.418z" transform="translate(4.437 4.437) translate(0 35.556) translate(6.693 5.856)"/>
                                <path fill="#000" d="M14.432 0c-.837 4.044-.488 9.76 1.045 17.15h-3.346L9.203 9.622l1.255-1.882-1.255-1.255L13.177.209C13.6.077 14.019.008 14.432 0z" transform="translate(4.437 4.437) translate(0 35.556) translate(6.693 5.856)"/>
                                <path fill="#000" d="M31.582 0c-.836 4.044-.488 9.76 1.046 17.15h-3.346l-2.928-7.529 1.254-1.882-1.254-1.255L30.327.209c.425-.132.843-.201 1.255-.209z" transform="translate(4.437 4.437) translate(0 35.556) translate(6.693 5.856) matrix(-1 0 0 1 58.982 0)"/>
                            </g>
                        </g>
                        <g>
                            <g transform="translate(4.437 4.437) translate(15.896 17.15) translate(.418 10.876)">
                                <mask id="3k4pfvd14i" fill="#fff">
                                    <use xlink:href="#zp6teeuo4h"/>
                                </mask>
                                <use fill="#000" fill-opacity=".7" xlink:href="#zp6teeuo4h"/>
                                <path fill="#FFF" d="M9.203.418h4.392c.578 0 1.046.469 1.046 1.046V2.72c0 .578-.468 1.046-1.046 1.046H9.203c-.578 0-1.046-.468-1.046-1.046V1.464c0-.577.468-1.046 1.046-1.046z" mask="url(#3k4pfvd14i)"/>
                                <g fill="#FF4F6D" mask="url(#3k4pfvd14i)">
                                    <g transform="translate(7.948 5.02)">
                                        <circle cx="2.301" cy="2.301" r="2.301"/>
                                        <circle cx="4.392" cy="2.301" r="2.301"/>
                                    </g>
                                </g>
                            </g>
                            <g fill="#000" fill-opacity=".16">
                                <path d="M3.346 1.673c0 .924 1.124 1.673 2.51 1.673 1.386 0 2.51-.749 2.51-1.673" transform="translate(4.437 4.437) translate(15.896 17.15) translate(5.856 8.366)"/>
                            </g>
                            <g transform="translate(4.437 4.437) translate(15.896 17.15) translate(0 1.673)">
                                <circle cx="6.275" cy="4.601" r="2.928" fill="#FFF"/>
                                <circle cx="17.151" cy="4.601" r="2.928" fill="#FFF"/>
                                <circle cx="6.275" cy="4.601" r="1.255" fill="#000" fill-opacity=".7"/>
                                <circle cx="17.151" cy="4.601" r="1.255" fill="#000" fill-opacity=".7"/>
                            </g>
                            <g fill="#000" fill-opacity=".6">
                                <g fill-rule="nonzero">
                                    <path d="M.76 2.334C1.577 1.182 3.822.536 5.756 1.01c.224.056.45-.082.506-.306.055-.224-.083-.45-.307-.506C3.71-.353 1.111.395.077 1.849c-.133.189-.09.45.099.584.188.133.45.09.583-.1z" transform="translate(4.437 4.437) translate(15.896 17.15) translate(2.51 1.255)"/>
                                    <path d="M12.89 2.334c.82-1.152 3.064-1.798 4.998-1.324.224.056.45-.082.506-.306.055-.224-.083-.45-.307-.506-2.246-.551-4.845.197-5.879 1.651-.134.189-.09.45.099.584.188.133.45.09.583-.1z" transform="translate(4.437 4.437) translate(15.896 17.15) translate(2.51 1.255) matrix(-1 0 0 1 30.537 0)"/>
                                </g>
                            </g>
                        </g>
                        <g transform="translate(4.437 4.437)">
                            <mask id="h6h6o6rwrk" fill="#fff">
                                <use xlink:href="#9bzx2fsrjj"/>
                            </mask>
                            <g mask="url(#h6h6o6rwrk)">
                                <g>
                                    <g transform="translate(-.21) translate(15.21 3)">
                                        <mask id="200at5db6m" fill="#fff">
                                            <use xlink:href="#pvd8bgsk6l"/>
                                        </mask>
                                        <use fill="#2E3257" xlink:href="#pvd8bgsk6l"/>
                                        <g fill="#2C1B18" mask="url(#200at5db6m)">
                                            <path d="M0 0H55.217V58.563H0z" transform="translate(-15 -3)"/>
                                        </g>
                                    </g>
                                    <g>
                                        <g transform="translate(-.21) translate(12.968 17.778)">
                                            <use fill="#000" filter="url(#tmxgi5tepn)" xlink:href="#2fp4zctzto"/>
                                            <use fill="#252C2F" xlink:href="#2fp4zctzto"/>
                                        </g>
                                    </g>
                                </g>
                            </g>
                        </g>
                    </g>
                </g>
            </g>
        </g>
    </g>
</svg>
