<?xml version="1.0" encoding="utf-8"?>
<!-- Generator: Adobe Illustrator 21.0.0, SVG Export Plug-In . SVG Version: 6.00 Build 0)  -->
<svg version="1.1" id="Layer_1" xmlns="http://www.w3.org/2000/svg" xmlns:xlink="http://www.w3.org/1999/xlink" x="0px" y="0px"
	 viewBox="0 0 512 512" style="enable-background:new 0 0 512 512;" xml:space="preserve">
<path style="fill:#CCCCCC;" d="M415,12H103c-49.7,0.1-89.9,40.4-90,90V414c0.1,49.7,40.4,89.9,90,90H415c49.7-0.1,89.9-40.4,90-90V102
	C504.9,52.4,464.6,12.1,415,12z M486.1,102v146.5H268.5V30.9H415C454.2,31,486,62.8,486.1,102z M31.9,102C32,62.8,63.8,31,103,30.9
	h146.5v217.6H31.9V102z M31.9,414V267.5h217.6v217.6H103C63.8,485,32,453.2,31.9,414z M486.1,414c-0.1,39.3-31.9,71.1-71.1,71.1
	H268.5V267.5h217.6V414z"/>
<path style="fill:#CCCCCC;" d="M333.2,414h88.1c5.2,0,9.5-4.2,9.5-9.5c0-5.2-4.2-9.5-9.5-9.5h-88.1c-5.2,0-9.5,4.2-9.5,9.5
	C323.8,409.7,328,414,333.2,414z"/>
<path style="fill:#CCCCCC;" d="M333.2,358h88.1c5.2,0,9.5-4.2,9.5-9.5c0-5.2-4.2-9.5-9.5-9.5h-88.1c-5.2,0-9.5,4.2-9.5,9.5
	C323.8,353.8,328,358,333.2,358C333.2,358,333.2,358,333.2,358z"/>
<path style="fill:#CCCCCC;" d="M333.2,149.1h88.1c5.2,0,9.5-4.2,9.5-9.5c0-5.2-4.2-9.5-9.5-9.5c0,0,0,0,0,0h-88.1c-5.2,0-9.5,4.2-9.5,9.5
	C323.8,144.9,328,149.1,333.2,149.1C333.2,149.1,333.2,149.1,333.2,149.1z"/>
<path style="fill:#CCCCCC;" d="M184.8,130.2h-34.6V95.7c0-5.2-4.2-9.5-9.5-9.5c-5.2,0-9.5,4.2-9.5,9.5v34.5H96.7c-5.2,0-9.5,4.2-9.5,9.5
	c0,5.2,4.2,9.5,9.5,9.5h34.5v34.6c0,5.2,4.2,9.5,9.5,9.5c5.2,0,9.5-4.2,9.5-9.5v-34.6h34.6c5.2,0,9.5-4.2,9.5-9.5
	C194.2,134.5,190,130.2,184.8,130.2z"/>
<path style="fill:#CCCCCC;" d="M178.5,338.5c-3.6-3.7-9.4-3.8-13.1-0.2c-0.1,0.1-0.2,0.1-0.2,0.2l-24.5,24.4l-24.4-24.4
	c-4.3-3-10.2-1.9-13.2,2.4c-2.2,3.2-2.2,7.5,0,10.7l24.4,24.5L103,400.8c-4.2,3-5.2,9-2.2,13.2s9,5.2,13.2,2.2
	c0.8-0.6,1.6-1.3,2.2-2.2l24.4-24.4l24.7,24.4c4.1,3.3,10,2.7,13.3-1.4c2.8-3.5,2.8-8.4,0-11.9l-24.4-24.4l24.2-24.6
	C182.1,348,182.1,342.1,178.5,338.5C178.5,338.5,178.5,338.5,178.5,338.5z"/>
</svg>
