<?xml version="1.0" encoding="utf-8"?>
<!-- Generator: Adobe Illustrator 23.0.1, SVG Export Plug-In . SVG Version: 6.00 Build 0)  -->
<svg version="1.1" id="Layer_1" xmlns="http://www.w3.org/2000/svg" xmlns:xlink="http://www.w3.org/1999/xlink" x="0px" y="0px"
	 viewBox="0 0 512 512" style="enable-background:new 0 0 512 512;" xml:space="preserve">
<g>
	<g>
		<path style="fill:#F16823;" d="M63.6,167.8c0,0,3.2-3.8,8.9-10.6c2.8-3.4,6.3-7.4,10.3-12.1c4-4.7,8.5-9.9,13.4-15.6
			c4.9-5.7,10.3-11.9,15.9-18.4c5.6-6.5,11.6-13.4,17.8-20.5c6.2-7.1,12.6-14.4,19.2-21.8c6.6-7.4,13.3-14.9,19.9-22.4
			c6.7-7.5,13.2-15.1,19.6-22.7c1.6-1.9,3.2-3.7,4.8-5.6l0.6-0.7l0.1-0.2l0.5-0.5l0.1-0.1l0.3-0.3l0.2-0.2c0,0,0-0.1,0.2-0.1
			l0.2-0.2c0.3-0.3,0.7-0.6,1-0.9c0.7-0.6,1.3-0.9,1.8-1.3c2.3-1.5,4.9-2.4,7.6-2.9c5.4-1,11.1,0.2,15.6,3.4
			c0.6,0.4,1.1,0.8,1.6,1.2l1,0.9l1.3,1.2c0.9,0.8,1.8,1.6,2.7,2.4c7,6.3,77.6,79.9,83,87.1c5.9,6.9-2.8,17.8-11.4,10.8
			c-7.6-4.7-64.3-59.3-67.6-62c-6.7-5.4-13.7-11.3-20.6-17.7c-0.8-0.8-1.7-1.6-2.6-2.4l-1.3-1.2l-0.4-0.4c0,0,0.1,0.1,0.1,0.1
			c0.1,0,0.1,0.1,0.2,0.1c0.7,0.4,1.4,0.4,2,0.2c0.3-0.1,0.6-0.3,0.8-0.5c0.1-0.1,0-0.1,0.3-0.3c0.1-0.1,0.2-0.2,0.3-0.3l0.1-0.1
			c0,0,0,0,0,0l-0.2,0.1l-0.4,0.3l-0.1,0.1c0.2-0.2-0.5,0.5,0.3-0.3l-0.2,0.2l-0.7,0.6c-1.8,1.6-3.6,3.3-5.4,5
			c-7.3,6.7-14.7,13.5-22,20.4c-7.2,6.9-14.5,13.9-21.6,20.7c-7.1,6.9-14.2,13.5-21.1,19.9c-6.9,6.4-13.5,12.7-19.8,18.6
			c-6.3,5.9-12.3,11.4-17.8,16.6c-5.5,5.1-10.6,9.8-15.1,13.9c-4.5,4.1-8.4,7.8-11.7,10.7c-6.5,5.9-10.2,9.3-10.2,9.3
			c-0.5,0.4-1.2,0.4-1.7-0.1C63.2,168.9,63.2,168.3,63.6,167.8z"/>
	</g>
	<g>
		<path style="fill:#F16823;" d="M115.9,156.9c0,2.4,0.1,4.8,0.1,7.2c0.1,4.8,0.2,9.7,0.3,14.5c0.2,4.8,0.3,9.6,0.5,14.4l0.2,6.3l0,0.8
			c0,0,15.5-4.6,25-5.2l0.1-1.9c0.1-4.8,0.3-9.6,0.5-14.4c0.1-4.8,0.2-9.6,0.3-14.5c0-2.4,0.1-4.8,0.1-7.2l0-2
			c18.5-0.1,37-0.3,55.2-1.1c19.1-0.7,37.9-1.7,56.1-2.9c18.2-1.3,35.8-2.5,52.5-3.7c8.3-0.6,16.4-1.2,24.3-1.7
			c7.9-0.5,15.4-1,22.7-1.4l10.7-0.6c1.7-0.1,3.4-0.2,5.1-0.3h0.7c0.2,0,0.4,0,0.6,0c0.3,0,0.6,0,0.9,0.1c0.7,0.1,1.3,0.3,2,0.6
			c2.5,1.1,4.4,3.5,5.1,6.2c0.2,0.7,0.3,1.3,0.3,2.1c0,0.8,0,1.5,0.1,2.3c0,1.5,0.1,3,0.2,4.5c0.4,11.4,0.6,21.3,0.8,29.6
			c0.2,0,0.3,0,0.5,0.1c0.2-8.3,0.3-18.3,0.8-29.7c0.1-1.5,0.1-3,0.2-4.5c0-0.8,0-1.5,0.1-2.3l0-1.3c0-0.4-0.1-0.9-0.1-1.3
			c-0.6-3.5-2.7-6.9-6.1-8.8c-0.8-0.5-1.8-0.9-2.7-1.2c-0.5-0.2-1-0.2-1.5-0.3c-0.3-0.1-0.5-0.1-0.7-0.1l-0.6-0.1
			c-1.7-0.1-3.5-0.2-5.3-0.3l-10.7-0.6c-7.3-0.4-14.8-0.9-22.7-1.4c-7.8-0.5-15.9-1.1-24.3-1.7c-16.7-1.2-34.3-2.4-52.5-3.7
			c-18.2-1.2-37-2.2-56.1-2.9c-19.1-0.8-38.5-1-57.9-1.1c-5.5,0-11,1.9-15.2,5.4c-4.2,3.4-7.3,8.3-8.5,13.6
			c-0.2,0.6-0.3,1.5-0.4,2.4l-0.1,1.3l0,0.5l0,0.4l0,1.1l0,0.9L115.9,156.9z"/>
		<path style="fill:#F16823;" d="M143.1,151.8c0,0.1,0,0.3,0,0.4c0,0.1,0,0.2,0,0.3l0-0.3L143.1,151.8z"/>
	</g>
	<g>
		<g>
			<path style="fill:#FFFFFF;" d="M467.2,472.6v-54.8c0-26.7-25.9-28.8-25.9-28.8H290.5c0,0-46,2.2-46-40.4c0-42.5,41.7-44.7,41.7-44.7h146.6
				c28,0,34.5-27.4,34.5-27.4v-57.7c0-31-28.7-33.2-28.7-33.2H108c-48.3,0-44.6-46.1-44.6-46.1c0-51.4,51.7-53.3,51.7-53.3
				l20.1-21.6c-93.4,0-90.5,64.8-90.5,64.8v302.8c0,50.5,64.7,69.2,64.7,69.2h330.5C468.7,501.4,467.2,472.6,467.2,472.6z M427,87.7
				c0,0,17.4,10.9-1.4,18.7h-33.1l-0.5,18.3l37.9,0.4c0,0,24.4-2.7,24.4-27.3c0-24.5-21.6-27.4-21.6-27.4H291.9L312,87.7H427z"/>
		</g>
	</g>
	<path style="fill-rule:evenodd;clip-rule:evenodd;fill:#51B848;" d="M296.3,325.5c10.7,0,19.4,8.7,19.4,19.5c0,10.7-8.7,19.5-19.4,19.5c-10.7,0-19.4-8.7-19.4-19.5
		C276.9,334.2,285.6,325.5,296.3,325.5z"/>
</g>
</svg>
