<?xml version="1.0" encoding="utf-8"?>
<!-- Generator: Adobe Illustrator 21.0.0, SVG Export Plug-In . SVG Version: 6.00 Build 0)  -->
<svg version="1.1" id="Layer_1" xmlns="http://www.w3.org/2000/svg" xmlns:xlink="http://www.w3.org/1999/xlink" x="0px" y="0px"
	 viewBox="0 0 512 512" style="enable-background:new 0 0 512 512;" xml:space="preserve">
<linearGradient id="XMLID_2_" gradientUnits="userSpaceOnUse" x1="280.8598" y1="437.9973" x2="280.8598" y2="311.6586">
	<stop  offset="0" style="stop-color:#FFFFFF"/>
	<stop  offset="9.853119e-02" style="stop-color:#F7F8FB"/>
	<stop  offset="0.4121" style="stop-color:#E1E6EF"/>
	<stop  offset="0.7167" style="stop-color:#D4DBE8"/>
	<stop  offset="1" style="stop-color:#D0D7E6"/>
</linearGradient>
<path id="XMLID_242_" style="fill:url(#XMLID_2_);" d="M138.8,332.7c-69.3,48.5-24.8,111.9,82.6,101.1s180.3,32.5,224-32.5s-53.2-89.8-152.7-89.6
	C193.2,311.9,167.2,312.8,138.8,332.7z"/>
<polygon id="XMLID_241_" style="fill:#EDBDAB;" points="390.9,191.3 399.1,196.2 411.3,191.3 407.1,202.3 419.3,211.2 403.2,208.5 
	399.1,217.7 393.1,211.2 383.2,213.8 391.6,201.2 "/>
<polygon id="XMLID_240_" style="fill:#EDBDAB;" points="209.6,361.7 211.9,358.9 210.8,353.9 214.8,356.1 218.9,352 216.9,358 220.2,360.1 
	217.4,362 217.8,366 213.4,362 "/>
<g id="XMLID_45_">
	<circle id="XMLID_232_" style="fill:#1F3262;" cx="223.8" cy="71.5" r="11.1"/>
	<circle id="XMLID_231_" style="fill:#1F3262;" cx="339.9" cy="71.5" r="11.1"/>
	<path id="XMLID_230_" style="fill:#D15B2D;" d="M188.8,142h10.6v-28.1h-10.6c-5.5,0-9.9,4.4-9.9,9.9v8.3C178.9,137.6,183.3,142,188.8,142z"/>
	<path id="XMLID_229_" style="fill:#D15B2D;" d="M372.3,142h-10.6v-28.1h10.6c5.5,0,9.9,4.4,9.9,9.9v8.3C382.2,137.6,377.7,142,372.3,142z"/>
	<g id="XMLID_228_">
		<path id="XMLID_79_" style="fill:#BFCBEB;" d="M183.7,295.8c-0.6-0.2-15.1-4.2-22.2-16.8c-4.2-7.5-4.9-16.2-2.2-25.9
			c8.9-31.1,43.8-35.7,45.3-35.9l1.5,11.9c-1.2,0.1-28.5,3.9-35.2,27.3c-1.9,6.5-1.5,12.1,1.1,16.7c4.6,8.1,14.7,11,14.8,11.1
			L183.7,295.8z"/>
	</g>
	<g id="XMLID_227_">
		<g id="XMLID_8_">
			<path id="XMLID_43_" style="fill:#8B9AC3;" d="M205,229.4l-2.2-11.8c1.2-0.2,1.8-0.3,1.8-0.3l1.5,11.9C206,229.2,205.6,229.3,205,229.4z"/>
		</g>
		<g id="XMLID_7_">
			<path id="XMLID_35_" style="fill:#8B9AC3;" d="M171.9,290.2c-0.9-0.7-1.9-1.3-2.7-2l7.6-9.2c0.6,0.5,1.2,1,1.9,1.4L171.9,290.2z
				 M161.6,279.3c-0.6-1-1.1-2.1-1.6-3.2l11.1-4.6c0.3,0.6,0.6,1.3,0.9,1.9L161.6,279.3z M158.1,264.4v-0.2c0-1.1-0.1-2.2,0-3.3
				l11.9,1.1c-0.1,0.7,0,1.5,0,2.2L158.1,264.4z M171.6,254.3l-11.3-4.1c0.4-1,0.8-2.1,1.2-3.1l10.9,4.9
				C172.2,252.7,171.9,253.5,171.6,254.3z M176.7,245.1l-9.4-7.4c0.7-0.9,1.4-1.7,2.1-2.5l8.9,8.1
				C177.7,243.9,177.2,244.5,176.7,245.1z M184.5,237.8l-6.9-9.8c0.9-0.6,1.8-1.2,2.7-1.8l6.3,10.2
				C185.9,236.9,185.2,237.4,184.5,237.8z M194.2,232.6l-4.5-11.1c1-0.4,2-0.8,2.9-1.1l4,11.3C195.9,231.9,195.1,232.2,194.2,232.6z
				"/>
		</g>
		<g id="XMLID_6_">
			<path id="XMLID_34_" style="fill:#8B9AC3;" d="M183.7,295.8c-0.1,0-0.8-0.2-1.9-0.6l4-11.3c0.6,0.2,0.9,0.3,1,0.3L183.7,295.8z"/>
		</g>
	</g>
	<g id="XMLID_226_">
		<path id="XMLID_33_" style="fill:#BFCBEB;" d="M370.6,214.6l-0.8-1.8c0.1,0,5.4-2.4,7.7-3.8c0.5-0.3,1.1-2,1.5-3.4c0.7-2.4,1.4-4.8,3.2-5.6
			c0.9-0.4,1.8-0.3,2.9,0.2c1.5,0.7,2.5,1.4,3.4,2.1c1.9,1.4,3,2.2,7.6,1.3l0.4,2c-5.2,1-6.8,0-9.1-1.7c-0.8-0.6-1.7-1.3-3-1.9
			c-0.8-0.4-1.1-0.2-1.2-0.1c-1,0.4-1.6,2.6-2.1,4.3c-0.6,2-1.1,3.8-2.3,4.5C376.2,212.1,370.9,214.5,370.6,214.6z"/>
	</g>
	<g id="XMLID_225_">
		<polygon id="XMLID_32_" style="fill:#BFCBEB;" points="393.1,232 383,232 371.5,225.1 372.5,223.4 383.5,230 393.1,230 		"/>
	</g>
	<circle id="XMLID_224_" style="fill:#1F3262;" cx="205.4" cy="223.3" r="16.5"/>
	<circle id="XMLID_223_" style="fill:#1F3262;" cx="359.4" cy="223.3" r="16.5"/>
	<path id="XMLID_222_" style="fill:#1F3262;" d="M194.4,151.5h15.3v-47h-15.3c-2.9,0-5.2,2.3-5.2,5.2v36.5
		C189.2,149.1,191.5,151.5,194.4,151.5z"/>
	<path id="XMLID_221_" style="fill:#1F3262;" d="M366.6,151.5h-15.3v-47h15.3c2.9,0,5.2,2.3,5.2,5.2v36.5C371.9,149.1,369.5,151.5,366.6,151.5
		z"/>
	<g id="XMLID_220_">
		<path id="XMLID_31_" style="fill:#BFCBEB;" d="M230.9,348c-0.1,0-9-3.4-12.5-4.4c-1.1-0.3-2,0.2-3.5,1.1c-1.8,1.1-4.1,2.6-7.4,1.4
			c-5.7-2-7-9-7-9.3l2-0.3c0,0.1,1.1,6.2,5.7,7.8c2.4,0.8,4-0.1,5.7-1.2c1.5-0.9,3.1-1.9,5.1-1.3c3.5,1,12.3,4.3,12.7,4.4L230.9,348
			z"/>
	</g>
	<g id="XMLID_219_">
		<path id="XMLID_30_" style="fill:#BFCBEB;" d="M216.2,360.3l-0.1-2c9.4-0.3,12.4-9.1,12.5-9.1l1.9,0.6C230.4,349.9,227,360,216.2,360.3z"/>
	</g>
	<circle id="XMLID_218_" style="fill:#1F3262;" cx="235.3" cy="346.3" r="16.5"/>
	<g id="XMLID_217_">
		<path id="XMLID_29_" style="fill:#BFCBEB;" d="M359.8,403.5c-0.1-0.3-6-28.5-36.2-52.3l7.4-9.4c33.9,26.7,40.3,58.1,40.6,59.4L359.8,403.5
			l5.9-1.2L359.8,403.5z"/>
	</g>
	<g id="XMLID_216_">
		<path id="XMLID_22_" style="fill:#8B9AC3;" d="M359.8,403.5c0,0-0.2-0.9-0.6-2.4l11.5-3.3c0.6,2.1,0.8,3.3,0.9,3.4L359.8,403.5l5.9-1.2
			L359.8,403.5z M356,392.4c-0.4-0.8-0.7-1.7-1.2-2.6l10.9-5.1c0.5,1,0.9,2,1.3,2.9L356,392.4z M350.4,381.5c-0.5-0.8-1-1.6-1.5-2.4
			l10.1-6.4c0.6,0.9,1.1,1.8,1.7,2.7L350.4,381.5z M343.6,371.3c-0.6-0.7-1.2-1.5-1.8-2.2l9.3-7.5c0.7,0.8,1.3,1.7,2,2.5
			L343.6,371.3z M335.5,362c-0.6-0.7-1.3-1.4-2-2l8.4-8.5c0.8,0.7,1.5,1.5,2.2,2.2L335.5,362z M326.5,353.5
			c-0.7-0.6-1.5-1.2-2.2-1.8l7.5-9.4c0.8,0.7,1.6,1.3,2.4,2L326.5,353.5z"/>
	</g>
	<circle id="XMLID_215_" style="fill:#1F3262;" cx="323.8" cy="346.3" r="16.5"/>
	<path id="XMLID_214_" style="fill:#1F3262;" d="M262,313.6h37.3c7.3,0,13.2-5.9,13.2-13.2v-5.1h-63.8v5.1C248.8,307.7,254.7,313.6,262,313.6z
		"/>
	<rect id="XMLID_213_" x="268.2" y="313.6" style="fill:#2F4B92;" width="27" height="16.2"/>
	<path id="XMLID_212_" style="fill:#3E64C3;" d="M309,367.3h-56.6c-5.3,0-10-3.6-11.3-8.8l-5.6-22.3c-1.9-7.3,3.7-14.5,11.3-14.5h67.8
		c7.6,0,13.1,7.1,11.3,14.5l-5.6,22.3C318.9,363.7,314.3,367.3,309,367.3z"/>
	<rect id="XMLID_211_" x="268.2" y="179.2" style="fill:#2F4B92;" width="27" height="16.2"/>
	<path id="XMLID_210_" style="fill:#1F3262;" d="M262,195.4h37.3c7.3,0,13.2,5.9,13.2,13.2v5.1h-63.8v-5.1C248.8,201.3,254.7,195.4,262,195.4z
		"/>
	<path id="XMLID_209_" style="fill:#3E64C3;" d="M332.3,304.2H229.1c-12,0-21.6-9.7-21.6-21.6v-59.9c0-12,9.7-21.6,21.6-21.6h103.2
		c12,0,21.6,9.7,21.6,21.6v59.9C353.9,294.5,344.2,304.2,332.3,304.2z"/>
	<path id="XMLID_208_" style="fill:#1F3262;" d="M310.7,185.3h-60.1c-8.8,0-15.9-7.1-15.9-15.9V167h91.8v2.4
		C326.6,178.1,319.5,185.3,310.7,185.3z"/>
	<path id="XMLID_207_" style="fill:#3E64C3;" d="M332.3,175.2H229.1c-12,0-21.6-9.7-21.6-21.6V93.7c0-12,9.7-21.6,21.6-21.6h103.2
		c12,0,21.6,9.7,21.6,21.6v59.9C353.9,165.5,344.2,175.2,332.3,175.2z"/>
	<path id="XMLID_206_" style="fill:#1F3262;" d="M323.9,286.7h-86.4c-2.9,0-5.2-2.3-5.2-5.2v-50c0-2.9,2.3-5.2,5.2-5.2h86.4
		c2.9,0,5.2,2.3,5.2,5.2v50C329.1,284.4,326.8,286.7,323.9,286.7z"/>
	<g id="XMLID_182_">
		<defs>
			<path id="XMLID_183_" d="M323.9,286.7h-86.4c-2.9,0-5.2-2.3-5.2-5.2v-50c0-2.9,2.3-5.2,5.2-5.2h86.4c2.9,0,5.2,2.3,5.2,5.2v50
				C329.1,284.4,326.8,286.7,323.9,286.7z"/>
		</defs>
		<clipPath id="XMLID_3_">
			<use xlink:href="#XMLID_183_"  style="overflow:visible;"/>
		</clipPath>
		<g id="XMLID_184_" style="clip-path:url(#XMLID_3_);">
			<g id="XMLID_205_">
				<path id="XMLID_21_" style="fill:#1E3B82;" d="M298.7,290.1l-3-0.1l0.2-9.3c0.1-3.4,2.9-6.2,6.4-6.2H332v3h-29.7c-1.8,0-3.3,1.5-3.4,3.3
					L298.7,290.1z"/>
			</g>
			<g id="XMLID_204_">
				<path id="XMLID_20_" style="fill:#1E3B82;" d="M304,295.4l-3-0.1l0.2-11.9c0-2,1.7-3.7,3.8-3.7h32.3v3H305c-0.4,0-0.8,0.3-0.8,0.8
					L304,295.4z"/>
			</g>
			<linearGradient id="XMLID_4_" gradientUnits="userSpaceOnUse" x1="276.6191" y1="246.6943" x2="331.6138" y2="246.6943">
				<stop  offset="0.3867" style="stop-color:#294792"/>
				<stop  offset="1" style="stop-color:#153175"/>
			</linearGradient>
			<path id="XMLID_203_" style="fill:url(#XMLID_4_);" d="M315.1,270.4h-22.1c-9.1,0-16.5-7.4-16.5-16.5v-31h55v31
				C331.6,263.1,324.2,270.4,315.1,270.4z"/>
			<path id="XMLID_199_" style="fill:#D15B2D;" d="M315.9,250.4c0-1.1-0.1-2.2-0.4-3.2l3.1-2.8l-3.4-5.8l-4,1.3c-1.6-1.5-3.4-2.4-5.5-3
				l-0.8-3.9h-6.7l-0.8,3.9c-2.1,0.6-4,1.7-5.5,3.1l-4-1.4l-3.4,5.8l3.1,2.8c-0.2,1-0.4,2.1-0.4,3.2s0.1,2.2,0.4,3.2l-3.1,2.8
				l3.4,5.8l4-1.3c1.6,1.5,3.4,3,5.5,3.6l0.8,4.5h6.7l0.8-4.5c2.1-0.6,4-2,5.5-3.4l4,1.2l3.4-5.9l-3.1-2.8
				C315.8,252.6,315.9,251.5,315.9,250.4z M301.6,258.5c-4.5,0-8.1-3.6-8.1-8.1c0-4.5,3.6-8.1,8.1-8.1s8.1,3.6,8.1,8.1
				C309.7,254.9,306.1,258.5,301.6,258.5z"/>
			<path id="XMLID_195_" style="fill:#3E64C3;" d="M294.8,279.6c0.4-0.6,0.8-1.3,1-1.9l2.8-0.4l0.4-4.6l-2.8-0.8c-0.3-1.4-1-2.7-1.9-3.9
				l1.1-2.5l-3.8-2.6l-2,1.9c-1.4-0.4-2.9-0.6-4.3-0.4l-1.7-2.3l-4.1,2l0.7,2.8c-0.5,0.5-1,1-1.4,1.7c-0.4,0.6-0.8,1.3-1,1.9
				l-2.8,0.4l-0.4,4.6l2.8,0.8c0.3,1.4,0.9,2.8,1.9,4l-1.1,2.6l3.8,2.6l2.1-2c1.4,0.4,2.9,0.5,4.4,0.3l1.7,2.3l4.2-2l-0.7-2.8
				C293.9,280.7,294.4,280.2,294.8,279.6z M283.6,278.6c-2.5-1.7-3.2-5.2-1.4-7.7c1.7-2.5,5.2-3.2,7.7-1.4c2.5,1.7,3.2,5.2,1.4,7.7
				C289.6,279.7,286.1,280.3,283.6,278.6z"/>
			<path id="XMLID_194_" style="fill:#3E64C3;" d="M274.7,245.3h-19.4c-3.6,0-6.5-2.9-6.5-6.5v-16.7h32.4v16.7
				C281.2,242.4,278.3,245.3,274.7,245.3z"/>
			<circle id="XMLID_193_" style="fill:#D15B2D;" cx="256.1" cy="239.2" r="2.1"/>
			<g id="XMLID_192_">
				<path id="XMLID_19_" style="fill:#BFCBEB;" d="M249.9,259h-2v-3.4c0-2.8,2.3-5,5-5c1.7,0,3-1.4,3-3v-2.3h2v2.3c0,2.8-2.3,5-5,5
					c-1.7,0-3,1.4-3,3V259z"/>
			</g>
			<g id="XMLID_191_">
				<rect id="XMLID_18_" x="259.1" y="246" style="fill:#BFCBEB;" width="2" height="14"/>
			</g>
			<circle id="XMLID_190_" style="fill:#BFCBEB;" cx="264.2" cy="239.2" r="2.1"/>
			<path id="XMLID_189_" style="fill:#D15B2D;" d="M265.7,294.8h-20.1c-3.5,0-6.3-2.8-6.3-6.3v-23.7c0-3.5,2.8-6.3,6.3-6.3h20.1
				c3.5,0,6.3,2.8,6.3,6.3v23.7C272,292,269.2,294.8,265.7,294.8z"/>
			<path id="XMLID_188_" style="fill:#9D4422;" d="M253.3,270.4h-14v-4.6h14c1.3,0,2.3,1,2.3,2.3l0,0C255.6,269.4,254.6,270.4,253.3,270.4z"
				/>
			<path id="XMLID_187_" style="fill:#9D4422;" d="M253.3,281h-14v-4.6h14c1.3,0,2.3,1,2.3,2.3l0,0C255.6,280,254.6,281,253.3,281z"/>
			<circle id="XMLID_186_" style="fill:#1F3262;" cx="301.6" cy="250.4" r="5.1"/>
			<rect id="XMLID_185_" x="230.1" y="222.1" style="opacity:0.2;" width="109.3" height="8.5"/>
		</g>
	</g>
	<g id="XMLID_179_">
		<circle id="XMLID_181_" style="fill:#1F3262;" cx="247.9" cy="125.5" r="16.5"/>
		<circle id="XMLID_180_" style="fill:#D15B2D;" cx="247.9" cy="125.5" r="10.9"/>
	</g>
	<rect id="XMLID_178_" x="263.2" y="151.5" style="fill:#1F3262;" width="35.9" height="11.9"/>
	<path id="XMLID_177_" style="fill:#BFCBEB;" d="M319,137.6l-17.3-17.3c-1.7-1.7-1.7-4.3,0-6l0,0c1.7-1.7,4.3-1.7,6,0l17.3,17.3
		c1.7,1.7,1.7,4.3,0,6l0,0C323.3,139.3,320.6,139.3,319,137.6z"/>
	<path id="XMLID_176_" style="fill:#BFCBEB;" d="M307.6,137.6l17.3-17.3c1.7-1.7,1.7-4.3,0-6v0c-1.7-1.7-4.3-1.7-6,0l-17.3,17.3
		c-1.7,1.7-1.7,4.3,0,6h0C303.3,139.3,306,139.3,307.6,137.6z"/>
	<g id="XMLID_175_">
		<path id="XMLID_17_" style="fill:#1E3B82;" d="M222.4,65.2l-2.9-0.8c0.1-0.3,2-7.5-3.3-9c-2.3-0.7-4.8-0.6-7-0.5c-3.7,0.1-7.9,0.3-9.2-4.3
			c-1.1-3.9,2.7-6,5.7-7.8c3.8-2.2,5-3.3,4.3-5c-1.2-2.8-3.1-3.3-5.2-3.9c-1.9-0.5-4-1.1-4.9-3.4l2.8-1.1c0.3,0.9,1.1,1.1,2.9,1.6
			c2.3,0.6,5.4,1.5,7.2,5.6c1.9,4.5-2.4,7-5.6,8.8c-3,1.7-4.7,2.9-4.3,4.4c0.6,2.2,2.1,2.3,6.2,2.2c2.4-0.1,5.1-0.2,7.9,0.6
			C223.5,54.3,223.3,61.6,222.4,65.2z"/>
	</g>
	<path id="XMLID_174_" style="fill:#2F4B92;" d="M329.5,248.7L329.5,248.7c-1.8,0-3.3-1.5-3.3-3.3v-8.6c0-1.8,1.5-3.3,3.3-3.3l0,0
		c1.8,0,3.3,1.5,3.3,3.3v8.6C332.9,247.2,331.4,248.7,329.5,248.7z"/>
	<path id="XMLID_173_" style="fill:#2F4B92;" d="M329.5,281L329.5,281c-1.8,0-3.3-1.5-3.3-3.3v-8.6c0-1.8,1.5-3.3,3.3-3.3l0,0
		c1.8,0,3.3,1.5,3.3,3.3v8.6C332.9,279.6,331.4,281,329.5,281z"/>
	<g id="XMLID_166_">
		
			<rect id="XMLID_172_" x="182.6" y="271.3" transform="matrix(0.9162 0.4007 -0.4007 0.9162 135.9933 -50.4017)" style="fill:#D15B2D;" width="11.9" height="57.5"/>
		<path id="XMLID_171_" style="fill:#D15B2D;" d="M202.1,244.2c0,0-1.6-0.8-3,1.1c-1.4,1.9-9.8,9.2-4.7,16.5c5.1,7.2,18.2,8.2,23.4,3.1
			c4.6-4.6,3.6-9.4,1-15.4c-1.3-3-2-3-3.5-3.2l-0.9,7.1c-0.4,3.3-3.4,5.7-6.7,5.3l-1.2-0.1c-3.4-0.4-5.8-3.4-5.4-6.8L202.1,244.2z"
			/>
		<path id="XMLID_170_" style="fill:#D15B2D;" d="M193.8,260.7c0,0,3.1,5.2,0.3,11.6l10.9,4.8c0,0,3.3-7.8,11.1-10.9L193.8,260.7z"/>
		<path id="XMLID_167_" style="fill:#D15B2D;" d="M177.9,324.4c-4.9-2.1-10.6,0.1-12.8,5c-2.1,4.9,0.1,10.6,5,12.8c4.9,2.1,10.6-0.1,12.8-5
			S182.8,326.5,177.9,324.4z M172.1,337.8c-2.5-1.1-3.6-4-2.5-6.5c1.1-2.5,4-3.6,6.5-2.5c2.5,1.1,3.6,4,2.5,6.5
			S174.5,338.9,172.1,337.8z"/>
	</g>
	<g id="XMLID_165_">
		<path id="XMLID_16_" style="fill:#BFCBEB;" d="M174.9,399.7l-6.7-10c1.1-0.8,28-18.3,70.8-13.1l-1.5,11.9
			C199.4,383.9,175.1,399.6,174.9,399.7z"/>
	</g>
	<g id="XMLID_164_">
		<path id="XMLID_9_" style="fill:#8B9AC3;" d="M174.9,399.7l-6.7-10c0.1-0.1,1.2-0.8,3.1-1.8l5.8,10.5C175.6,399.2,174.9,399.7,174.9,399.7z
			 M185.4,394.6l-4.4-11.2c0.9-0.4,1.9-0.7,3-1.1l4.1,11.3C187.1,393.9,186.2,394.3,185.4,394.6z M197,390.9l-2.9-11.6
			c1-0.3,2-0.5,3.1-0.7l2.6,11.7C198.9,390.4,197.9,390.7,197,390.9z M209.1,388.6l-1.5-11.9c1-0.1,2.1-0.3,3.1-0.4l1.2,11.9
			C211,388.4,210,388.5,209.1,388.6z M236.6,388.4c-1-0.1-1.9-0.2-2.8-0.3l1.1-12c1,0.1,2.1,0.2,3.1,0.3L236.6,388.4z M221.4,387.7
			l-0.2-12c0.7,0,1.4,0,2.1,0l1,0l-0.1,12l-0.9,0C222.7,387.7,222,387.7,221.4,387.7z"/>
	</g>
	<circle id="XMLID_163_" style="fill:#1F3262;" cx="171" cy="396.5" r="11.5"/>
	
		<ellipse id="XMLID_162_" transform="matrix(0.7095 -0.7047 0.7047 0.7095 -178.6614 374.448)" style="fill:#1F3262;" cx="364.8" cy="403.9" rx="11.5" ry="11.5"/>
	<path id="XMLID_159_" style="fill:#BFCBEB;" d="M282.7,386h-11.6l-5.8,9.5l5.8,9.5h11.6l5.8-9.5L282.7,386z M276.9,398.2c-2.2,0-4-1.8-4-4
		c0-2.2,1.8-4,4-4c2.2,0,4,1.8,4,4C280.9,396.4,279.1,398.2,276.9,398.2z"/>
	<path id="XMLID_158_" style="fill:#2F4B92;" d="M381.5,358.9h-13.8c-1.1,0-1.9-0.9-1.9-1.9v-5.2c0-1.1,0.9-1.9,1.9-1.9h13.8
		c1.1,0,1.9,0.9,1.9,1.9v5.2C383.4,358,382.5,358.9,381.5,358.9z"/>
	<path id="XMLID_157_" style="fill:#3E64C3;" d="M351.3,410.9l10.5,22.4l76.3-35.9l-2.6-5.5c-4.4-9.3-15.5-13.3-24.8-8.9L351.3,410.9z"/>
	<path id="XMLID_153_" style="fill:#3E64C3;" d="M175.6,411l-23.3,8.3L124,339.8l5.7-2c9.7-3.5,20.4,1.6,23.8,11.3L175.6,411z"/>
	<circle id="XMLID_152_" style="fill:#3E64C3;" cx="191.5" cy="293.4" r="15.9"/>
	<circle id="XMLID_151_" style="fill:#D15B2D;" cx="200.8" cy="30.1" r="4.1"/>
	<circle id="XMLID_147_" style="fill:#3E64C3;" cx="406" cy="371.9" r="4.6"/>
</g>
</svg>
