<?xml version="1.0" encoding="UTF-8" standalone="no"?>
<svg
   xmlns:dc="http://purl.org/dc/elements/1.1/"
   xmlns:cc="http://creativecommons.org/ns#"
   xmlns:rdf="http://www.w3.org/1999/02/22-rdf-syntax-ns#"
   xmlns:svg="http://www.w3.org/2000/svg"
   xmlns="http://www.w3.org/2000/svg"
   xml:space="preserve"
   style="enable-background:new 0 0 512 139.9;"
   viewBox="0 0 512 139.9"
   y="0px"
   x="0px"
   id="Layer_1"
   version="1.1"><metadata
     id="metadata51"><rdf:RDF><cc:Work
         rdf:about=""><dc:format>image/svg+xml</dc:format><dc:type
           rdf:resource="http://purl.org/dc/dcmitype/StillImage" /></cc:Work></rdf:RDF></metadata><defs
     id="defs49" />
<g
     id="g44"><g
       id="g22"><path
         id="path4"
         d="M194.3,62.4v39.2h-3.8V69.1l-15.2,20.8l-15.2-20.8v32.5h-3.8V62.4h3.3l15.7,21.7L191,62.4H194.3z"
         style="fill:#1C4178;" /><path
         id="path6"
         d="M203.5,81.9c0-11.4,8.3-20.3,20.4-20.3c12.1,0,20.4,9,20.4,20.3c0,11.3-8.3,20.3-20.4,20.3    C211.8,102.2,203.5,93.2,203.5,81.9z M240.3,81.9c0-9.3-6.5-16.9-16.4-16.9c-9.9,0-16.4,7.6-16.4,16.9c0,9.2,6.5,16.9,16.4,16.9    C233.7,98.8,240.3,91.1,240.3,81.9z"
         style="fill:#1C4178;" /><path
         id="path8"
         d="M284.2,62.4v39.2h-3.6l-23.5-32.9v32.9h-3.7V62.4h3.6l23.5,32.8V62.4H284.2z"
         style="fill:#1C4178;" /><path
         id="path10"
         d="M299,65.7v14.7h15.2v3.1H299v14.7h18.3v3.3h-22.1V62.4h22.1v3.3H299z"
         style="fill:#1C4178;" /><path
         id="path12"
         d="M338.3,83v18.6h-3.8V83l-13.7-20.6h4.5l11.1,17l11.1-17h4.5L338.3,83z"
         style="fill:#1C4178;" /><path
         id="path14"
         d="M372.1,62.4c3.6,0,6.7,1.1,9.3,3.4c2.6,2.2,3.9,5.2,3.9,8.9c0,3.6-1.3,6.6-3.9,8.8c-2.6,2.2-5.7,3.3-9.3,3.3    l-7.5,0.1v14.8h-7.7V62.4H372.1z M369.6,81c2.4,0,4.3-0.5,5.6-1.6c1.3-1.1,2-2.7,2-4.7c0-2.1-0.7-3.7-2-4.8    c-1.3-1.1-3.2-1.7-5.6-1.7l-5,0.1V81H369.6z"
         style="fill:#F16823;" /><path
         id="path16"
         d="M414.1,101.6l-11.3-15.9h-2.6v15.9h-7.7V62.4h14c3.8,0,7,1,9.6,3.1c2.7,2.1,4,4.9,4,8.6c0,2.9-0.9,5.2-2.6,7    c-1.7,1.8-4,3.1-6.8,3.9l12.7,16.6H414.1z M400.2,68.3v11.6h4.7c2.4,0,4.2-0.5,5.5-1.5c1.3-1,1.9-2.4,1.9-4.3c0-1.9-0.7-3.3-2-4.3    c-1.3-1-3.2-1.6-5.7-1.6H400.2z"
         style="fill:#F16823;" /><path
         id="path18"
         d="M457.9,99.7c-3.2,1.9-6.9,2.8-11.1,2.8c-4.1,0-7.8-0.9-11.1-2.8c-3.2-1.9-5.7-4.3-7.4-7.4    c-1.7-3.1-2.6-6.6-2.6-10.4c0-3.8,0.9-7.2,2.6-10.4c1.7-3.1,4.2-5.6,7.4-7.4c3.2-1.8,6.9-2.7,11.1-2.7c3.1,0,6,0.5,8.6,1.6    c2.7,1.1,4.9,2.5,6.7,4.3c1.8,1.8,3.2,4,4.2,6.5c1,2.5,1.5,5.2,1.5,8c0,3.8-0.9,7.2-2.6,10.4C463.6,95.3,461.1,97.8,457.9,99.7z     M437.3,91.6c2.4,2.7,5.6,4,9.5,4c3.9,0,7.1-1.3,9.5-4c2.4-2.7,3.6-5.9,3.6-9.7c0-3.8-1.2-7-3.6-9.6s-5.6-4-9.5-4    c-3.9,0-7.1,1.3-9.5,4s-3.6,5.9-3.6,9.6C433.6,85.7,434.8,88.9,437.3,91.6z"
         style="fill:#F16823;" /><path
         id="path20"
         d="M487.4,102.5c-6.3,0-11.4-2-15.3-6l5-5.2c2.6,3.1,5.8,4.7,9.6,4.7c1.8,0,3.3-0.4,4.6-1.3    c1.3-0.9,1.9-2.1,1.9-3.7s-0.6-2.8-1.8-3.8c-1.2-0.9-3-1.8-5.3-2.5c-3.9-1.2-6.8-2.7-8.6-4.5c-1.9-1.8-2.8-4.3-2.8-7.5    c0-3.2,1.3-5.9,4-8c2.7-2.1,5.8-3.2,9.4-3.2c4.8,0,9.1,1.6,12.7,4.7l-4.7,5.1c-2.5-2.2-5.1-3.4-7.8-3.4c-1.6,0-3,0.4-4.1,1.3    c-1.1,0.9-1.7,2-1.7,3.3c0,1.4,0.6,2.6,1.7,3.5c1.1,0.9,3.1,1.8,6,2.8c7.4,2.5,11.1,6.5,11.1,12.1c0,2-0.4,3.7-1.3,5.3    c-0.8,1.6-2,2.8-3.3,3.6c-1.4,0.9-2.9,1.6-4.5,2C490.7,102.2,489.1,102.5,487.4,102.5z"
         style="fill:#F16823;" /></g><g
       id="g42"><g
         id="g26"><path
           id="path24"
           d="M12.2,47.9c0,0,0.8-1,2.2-2.6c0.7-0.8,1.6-1.9,2.6-3c1-1.2,2.1-2.5,3.4-3.9c1.2-1.4,2.6-3,4-4.6     c1.4-1.6,2.9-3.3,4.5-5.1c1.6-1.8,3.1-3.6,4.8-5.5c1.6-1.8,3.3-3.7,5-5.6c1.7-1.9,3.3-3.8,4.9-5.7c0.4-0.5,0.8-0.9,1.2-1.4     l0.2-0.2l0,0L45,10l0,0l0.1-0.1l0,0c0,0,0,0,0,0l0.1,0c0.1-0.1,0.2-0.1,0.3-0.2c0.2-0.1,0.3-0.2,0.5-0.3c0.6-0.4,1.2-0.6,1.9-0.7     c1.3-0.2,2.8,0.1,3.9,0.8c0.1,0.1,0.3,0.2,0.4,0.3l0.3,0.2l0.3,0.3c0.2,0.2,0.4,0.4,0.7,0.6c1.7,1.6,19.4,20,20.8,21.8     c1.5,1.7-0.7,4.5-2.9,2.7c-1.9-1.2-16.1-14.9-16.9-15.5c-1.7-1.4-3.4-2.8-5.2-4.4c-0.2-0.2-0.4-0.4-0.6-0.6l-0.3-0.3l-0.1-0.1     c0,0,0,0,0,0c0,0,0,0,0.1,0c0.2,0.1,0.3,0.1,0.5,0c0.1,0,0.1-0.1,0.2-0.1c0,0,0,0,0.1-0.1c0,0,0,0,0.1-0.1l0,0c0,0,0,0,0,0l0,0     L49,14.3l0,0c0,0-0.1,0.1,0.1-0.1l0,0l-0.2,0.2c-0.5,0.4-0.9,0.8-1.4,1.2c-1.8,1.7-3.7,3.4-5.5,5.1c-1.8,1.7-3.6,3.5-5.4,5.2     c-1.8,1.7-3.6,3.4-5.3,5c-1.7,1.6-3.4,3.2-5,4.7c-1.6,1.5-3.1,2.9-4.5,4.2c-1.4,1.3-2.7,2.5-3.8,3.5c-1.1,1-2.1,1.9-2.9,2.7     c-1.6,1.5-2.6,2.3-2.6,2.3c-0.1,0.1-0.3,0.1-0.4,0C12.1,48.1,12.1,48,12.2,47.9z"
           style="fill:#F16823;" /></g><g
         id="g32"><path
           id="path28"
           d="M25.3,45.1c0,0.6,0,1.2,0,1.8c0,1.2,0,2.4,0.1,3.6c0,1.2,0.1,2.4,0.1,3.6l0.1,1.6l0,0.2c0,0,3.9-1.2,6.3-1.3     l0-0.5c0-1.2,0.1-2.4,0.1-3.6c0-1.2,0-2.4,0.1-3.6c0-0.6,0-1.2,0-1.8l0-0.5c4.6,0,9.3-0.1,13.8-0.3c4.8-0.2,9.5-0.4,14-0.7     c4.6-0.3,9-0.6,13.1-0.9c2.1-0.1,4.1-0.3,6.1-0.4c2-0.1,3.9-0.3,5.7-0.4l2.7-0.1c0.4,0,0.9,0,1.3-0.1H89c0.1,0,0.1,0,0.1,0     c0.1,0,0.1,0,0.2,0c0.2,0,0.3,0.1,0.5,0.2c0.6,0.3,1.1,0.9,1.3,1.5c0,0.2,0.1,0.3,0.1,0.5c0,0.2,0,0.4,0,0.6c0,0.4,0,0.8,0,1.1     c0.1,2.8,0.2,5.3,0.2,7.4c0,0,0.1,0,0.1,0c0-2.1,0.1-4.6,0.2-7.4c0-0.4,0-0.7,0-1.1c0-0.2,0-0.4,0-0.6l0-0.3c0-0.1,0-0.2,0-0.3     c-0.1-0.9-0.7-1.7-1.5-2.2c-0.2-0.1-0.4-0.2-0.7-0.3c-0.1,0-0.2-0.1-0.4-0.1c-0.1,0-0.1,0-0.2,0l-0.2,0c-0.4,0-0.9,0-1.3-0.1     l-2.7-0.1c-1.8-0.1-3.7-0.2-5.7-0.4c-2-0.1-4-0.3-6.1-0.4c-4.2-0.3-8.6-0.6-13.1-0.9c-4.6-0.3-9.3-0.5-14-0.7     c-4.8-0.2-9.6-0.2-14.5-0.3c-1.4,0-2.8,0.5-3.8,1.4c-1.1,0.9-1.8,2.1-2.1,3.4c0,0.1-0.1,0.4-0.1,0.6l0,0.3l0,0.1l0,0.1l0,0.3     l0,0.2L25.3,45.1z"
           style="fill:#F16823;" /><path
           id="path30"
           d="M32.1,43.8C32.1,43.9,32.1,43.9,32.1,43.8c0,0.1,0,0.2,0,0.2L32.1,43.8L32.1,43.8z"
           style="fill:#F16823;" /></g><g
         id="g38"><g
           id="g36"><path
             id="path34"
             d="M113.3,124.2v-13.7c0-6.7-6.5-7.2-6.5-7.2H69c0,0-11.5,0.5-11.5-10.1C57.5,82.5,68,81.9,68,81.9h36.7      c7,0,8.6-6.9,8.6-6.9V60.6c0-7.8-7.2-8.3-7.2-8.3H23.3c-12.1,0-11.2-11.6-11.2-11.6c0-12.9,13-13.4,13-13.4l5-5.4      C6.8,22,7.5,38.2,7.5,38.2v75.9c0,12.6,16.2,17.3,16.2,17.3h82.8C113.7,131.4,113.3,124.2,113.3,124.2z M103.2,27.8      c0,0,4.4,2.7-0.4,4.7h-8.3l-0.1,4.6l9.5,0.1c0,0,6.1-0.7,6.1-6.8c0-6.1-5.4-6.9-5.4-6.9H69.4l5,4.3H103.2z"
             style="fill:#1C4178;" /></g></g><path
         id="path40"
         d="M70.5,87.3c2.7,0,4.9,2.2,4.9,4.9c0,2.7-2.2,4.9-4.9,4.9c-2.7,0-4.9-2.2-4.9-4.9    C65.6,89.5,67.8,87.3,70.5,87.3z"
         style="fill-rule:evenodd;clip-rule:evenodd;fill:#51B848;" /></g></g></svg>