<svg height="511pt" viewBox="0 0 511.99973 511" width="511pt" xmlns="http://www.w3.org/2000/svg"><path d="m196.019531 206.519531c5.515625 0 9.996094-4.480469 9.996094-9.996093 0-5.519532-4.480469-9.996094-9.996094-9.996094-5.519531 0-9.996093 4.476562-9.996093 9.996094 0 5.515624 4.476562 9.996093 9.996093 9.996093zm0 0"/><path d="m490.226562 64.6875-51.453124 51.441406-42.402344-42.40625 51.441406-51.449218c5.222656-5.226563 3.164062-14.171876-3.878906-16.542969-35.148438-11.832031-76.242188-3.742188-104.265625 25.792969-24.226563 25.519531-33.238281 61.371093-24.226563 94.890624l-52.121094 52.585938c-6.472656-6.472656-134.246093-134.246094-148.390624-148.394531-11.695313-11.691407-30.722657-11.691407-42.417969 0l-42.40625 42.40625c-11.691407 11.695312-11.691407 30.722656 0 42.417969 14.171875 14.171874 142 142 148.390625 148.390624l-52.582032 52.058594c-32.613281-8.738281-68.816406-.695312-94.933593 24.226563-.050781.050781-.101563.101562-.152344.152343-.003906.003907-.007813.007813-.011719.007813-.003906.003906-.003906.007813-.007812.007813-29.179688 27.992187-37.453125 68.863281-25.578125 104.09375 2.382812 7.078124 11.335937 9.082031 16.539062 3.878906l51.441407-51.441406 42.414062 42.410156-51.449219 51.441406c-5.230469 5.226562-3.164062 14.171875 3.875 16.542969 35.148438 11.832031 76.242188 3.742187 104.265625-25.792969 24.21875-25.496094 33.238282-61.320312 24.253906-94.828125l52.605469-52.078125 105.503907 105.503906c.085937.085938.175781.160156.265624.238282.132813.128906.269532.257812.414063.375.097656.082031.199219.15625.300781.234374.160156.121094.320313.246094.488282.359376.09375.066406.195312.121093.292968.183593.179688.113281.359375.226563.546875.328125.097657.054688.203125.101563.304688.152344.191406.09375.382812.1875.578125.273438.027344.007812.050781.023437.074218.035156 13.546876 5.574218 106.828126 43.988281 120.167969 49.480468 3.738281 1.539063 8.027344.671876 10.875-2.175781 2.851563-2.851562 3.710938-7.144531 2.175781-10.875l-24.71875-60.023437c-.003906-.007813-.003906-.015625-.007812-.023438l-24.757812-60.121094c-.007813-.023437-.023438-.046874-.03125-.070312-.085938-.199219-.179688-.394531-.277344-.585938-.050782-.097656-.09375-.199218-.148438-.296874-.105468-.191407-.21875-.375-.332031-.558594-.0625-.09375-.117187-.191406-.179687-.28125-.117188-.175782-.246094-.339844-.375-.507813-.070313-.09375-.140626-.1875-.214844-.277343-.128906-.15625-.269532-.304688-.410156-.453126-.070313-.074218-.132813-.15625-.207032-.230468l-105.503906-105.5 52.144531-52.613282c33.503907 8.980469 69.328125-.035156 94.8125-24.238281 29.414063-27.875 37.703125-68.9375 25.8125-104.265625-2.359375-7.003906-11.289062-9.136718-16.542969-3.878906zm-69.40625-43.695312-38.585937 38.59375-20.933594-20.933594c16.925781-14.007813 38.347657-19.980469 59.519531-17.660156zm-8.277343 335.507812c-13.070313 4.417969-25.082031 11.804688-34.910157 21.632812-9.832031 9.832032-17.21875 21.84375-21.636718 34.914063l-234-234 56.550781-56.546875zm32.855469 63.484375-25.917969 25.914063-46.578125-19.179688c5.828125-26.78125 26.535156-47.484375 53.316406-53.316406zm-365.816407-283.351563 56.546875-56.546874 28.277344 28.277343-56.546875 56.546875zm-35.335937-49.480468 42.402344-42.40625c3.898437-3.898438 10.246093-3.898438 14.144531 0l21.199219 21.199218-56.546876 56.550782-21.199218-21.203125c-3.902344-3.898438-3.902344-10.242188 0-14.140625zm-23.757813 334.101562c-2.316406-21.164062 3.664063-42.527344 17.660157-59.511718l20.925781 20.925781zm70.679688 70.683594 38.59375-38.585938 20.925781 20.925782c-16.945312 14.023437-38.363281 19.976562-59.519531 17.660156zm84.621093-105.039062c8.382813 24.878906 3.96875 51.933593-11.371093 72.839843l-27.582031-27.585937s-.003907-.003906-.003907-.003906-.003906 0-.003906-.003907l-84.164063-84.160156c21.636719-15.925781 49.019532-19.371094 72.871094-11.34375 3.582032 1.207031 7.535156.289063 10.222656-2.371094l56.878907-56.308593 13.847656 13.851562-64.226563 63.652344c-3.921874 3.886718-3.949218 10.214844-.0625 14.136718 3.875 3.910157 10.203126 3.960938 14.136719.0625l64.292969-63.714843 14.414062 14.414062-56.808593 56.238281c-2.710938 2.683594-3.660157 6.679688-2.441407 10.296876zm263.722657 67.25 14.132812-14.136719 9.894531 24.027343zm-53.046875-277.855469c-3.613282-1.214844-7.605469-.273438-10.292969 2.4375l-56.308594 56.8125-14.414062-14.414063 63.007812-63.511718c3.890625-3.917969 3.863281-10.246094-.054687-14.136719-3.917969-3.886719-10.25-3.863281-14.136719.058593l-62.953125 63.453126-13.855469-13.855469 56.375-56.875c2.664063-2.6875 3.582031-6.644531 2.375-10.230469-8.382812-24.875-3.972656-51.929688 11.363281-72.835938 15.230469 15.230469 101.414063 101.414063 111.726563 111.726563-20.902344 15.335937-47.953125 19.75-72.832031 11.371094zm87.375-25.101563-20.929688-20.925781 38.59375-38.585937c2.316406 21.144531-3.628906 42.566406-17.664062 59.511718zm0 0"/><path d="m334.898438 349.539062c3.90625 3.902344 10.234374 3.902344 14.140624 0 3.902344-3.902343 3.902344-10.234374 0-14.136718l-117.691406-117.691406c-3.902344-3.902344-10.234375-3.902344-14.136718 0-3.902344 3.90625-3.902344 10.234374 0 14.140624zm0 0"/></svg>