<?xml version="1.0" encoding="utf-8"?>
<!-- Generator: Adobe Illustrator 21.0.0, SVG Export Plug-In . SVG Version: 6.00 Build 0)  -->
<svg version="1.1" id="Layer_1" xmlns="http://www.w3.org/2000/svg" xmlns:xlink="http://www.w3.org/1999/xlink" x="0px" y="0px"
	 viewBox="0 0 512 512" style="enable-background:new 0 0 512 512;" xml:space="preserve">
<path style="fill:#CCCCCC;" d="M504.9,261.2c-2.6,107.3-72.4,196.2-167.4,228.4c-27.7,9.4-56.2,13.8-85.5,12.8c-27-0.9-53.4-5.1-78.8-15
	C88.6,454.5,36.7,393.6,16.3,305.6c-5.1-22.2-6.2-45-4-67.8c6-63.7,32.2-123.3,81-165.6C167.9,7.4,294.3-9.7,380.4,41.4
	c5.8,3.5,7.6,9.4,4.6,14.5c-3.1,5.1-8.6,6-15,3.2c-16.4-7.3-32.6-15.6-49.7-20.9c-20.4-6.4-41.7-8.9-63.3-8.9
	C142.9,29.2,43.9,118,32.7,233.4c-6.4,66.3,13.8,124.2,57.4,174.2c1,1.1,2.1,2.2,3.2,3.2c0.2,0.2,0.7,0.1,1.3,0.1
	c1.3-12,2.4-24,4.1-36c2.1-15.6,5.4-31,12.3-45.4c4.3-8.9,9.8-16.9,19.1-21c3.9-1.7,8.4-2.4,12.7-2.7c14-0.9,27.5-3.6,40-9.9
	c3.2-1.6,6-3.9,8.8-6.1c4.8-3.7,10.5-3.7,14.4,0.3c3.9,4,4.2,10.2-0.2,14.3c-4.3,3.9-9.1,7.5-14.3,10.1c-14.4,7.3-29.9,11-46,11.6
	c-6.3,0.2-10.4,2.7-13.5,7.7c-6.9,11-10,23.5-11.6,36c-2.4,19-3.8,38.1-5.4,57.2c-0.2,1.8,0.5,4.6,1.8,5.5
	c12,8.6,24.2,16.8,36.3,25.2c0.7-0.5,1.4-1.1,2-1.6V450c0-18.8,0-37.6,0-56.4c0-1.7-0.1-3.4,0.1-5.1c0.4-6,4.6-10.1,10.2-10.1
	c5.5,0,10.1,4.1,10.1,10.1c0,24.3-0.2,48.6-0.4,72.9c0,3.5,0.4,5.5,4.5,7c22.3,8.1,45.1,13.2,68.8,14c20.8,0.7,41.7-0.3,61.9-6.3
	c8.3-2.5,16.6-5.1,25-7.4c4-1.1,5.2-3.2,5.2-7.3c-0.2-22.6-0.1-45.2-0.1-67.8c0-2.1-0.1-4.2,0.2-6.3c0.8-5.5,5.3-9.3,10.7-9
	c5.2,0.3,9.1,4.1,9.5,9.5c0.2,2.1,0.1,4.2,0.1,6.3c0,18.6,0,37.2,0,55.8v7.5c4.5-2.5,8.1-4.1,11.3-6.2c8.7-5.8,17.3-11.6,25.8-17.7
	c1.6-1.1,3.2-3.6,3.1-5.4c-1-27.5-2.5-55-11-81.5c-1.2-3.6-2.8-7.1-4.5-10.4c-3.3-6.5-8-10-16.1-10.3c-18.2-0.7-35.6-5.4-51.3-15.1
	c-3.2-2-6.1-4.6-8.6-7.4c-3.5-4-2.9-9.7,0.8-13.4c3.5-3.5,9.1-4.2,13-1c14.8,12.4,32.5,15.8,50.9,16.7c12.7,0.6,21.2,7.5,27.4,17.7
	c9.6,15.8,13.1,33.5,15.7,51.4c1.7,12,2.8,24,4.2,37.1c1.8-1.8,3.3-3.1,4.6-4.5c26.1-29.2,44.4-62.6,52.3-100.9
	c3.8-18.2,6.3-37.2,6-55.7c-0.6-37.1-10.2-72.3-28.5-105c-1.5-2.7-2.8-6-2.8-9c0.1-4.5,3-7.7,7.6-8.7c5.4-1.2,9.6,0.9,11.7,5.8
	c7.6,17.3,16,34.4,22.1,52.3C502.9,210.2,505.5,235.6,504.9,261.2z"/>
<path style="fill:#CCCCCC;" d="M326.6,166.6c-0.6,32.4-5.7,59.2-21.9,82.7c-12.1,17.6-27.8,29.8-50.7,28.1c-19.2-1.5-32.4-12.9-42.8-28
	c-14.4-21-20.5-44.8-21.3-69.8c-0.4-13,0.3-26.3,3-39c8-38.3,39.5-58.7,78-51.9c28.9,5.1,47.5,24.4,53,55.6
	C325.6,153.1,326.1,162.1,326.6,166.6z M306,171.5c0.5-0.1,0.9-0.2,1.4-0.3c-2.3-11.7-3.7-23.5-7-34.9
	c-3.4-11.8-11.6-20.3-23.3-24.9c-30-11.7-58.4,3.6-64.6,35.1c-5.1,25.6-2.4,50.7,7.1,74.9c4,10.3,9.7,19.8,18.1,27.3
	c12.8,11.3,28,11.5,40.5,0c4.4-4.1,8.4-8.9,11.5-14C301.6,215.3,305.4,193.8,306,171.5z"/>
</svg>
